<svg width="440" height="118" viewBox="0 0 440 118" fill="none" xmlns="http://www.w3.org/2000/svg">
<path d="M279.37 114.121C278.818 114.121 278.37 113.673 278.37 113.121V78.6824C278.37 78.1301 277.922 77.6824 277.37 77.6824H265C264.448 77.6824 264 77.2347 264 76.6824V70.2143C264 69.662 264.448 69.2143 265 69.2143H302.133C302.685 69.2143 303.133 69.662 303.133 70.2143V76.6824C303.133 77.2347 302.685 77.6824 302.133 77.6824H289.763C289.211 77.6824 288.763 78.1301 288.763 78.6824V113.121C288.763 113.673 288.315 114.121 287.763 114.121H279.37Z" fill="white"/>
<path d="M373.256 114.891C369.792 114.891 366.563 114.335 363.569 113.223C360.618 112.068 358.052 110.443 355.87 108.347C353.689 106.252 351.979 103.793 350.738 100.97C349.541 98.1471 348.942 95.0464 348.942 91.6677C348.942 88.289 349.541 85.1883 350.738 82.3656C351.979 79.5428 353.689 77.0837 355.87 74.988C358.094 72.8924 360.682 71.2886 363.633 70.1766C366.584 69.0218 369.813 68.4445 373.32 68.4445C377.212 68.4445 380.719 69.1287 383.841 70.4973C386.71 71.6991 389.157 73.4279 391.182 75.6838C391.536 76.0778 391.492 76.6798 391.103 77.0389L385.877 81.8627C385.464 82.2439 384.82 82.2076 384.427 81.8065C383.072 80.427 381.594 79.373 379.992 78.6447C378.11 77.7466 376.057 77.2975 373.833 77.2975C371.738 77.2975 369.813 77.6397 368.059 78.3239C366.306 79.0082 364.788 79.9919 363.505 81.275C362.222 82.558 361.216 84.0763 360.489 85.8298C359.805 87.5833 359.463 89.5293 359.463 91.6677C359.463 93.8061 359.805 95.7521 360.489 97.5056C361.216 99.2591 362.222 100.777 363.505 102.06C364.788 103.343 366.306 104.327 368.059 105.011C369.813 105.696 371.738 106.038 373.833 106.038C376.057 106.038 378.11 105.61 379.992 104.755C381.595 103.99 383.073 102.899 384.428 101.482C384.82 101.073 385.47 101.033 385.886 101.417L391.103 106.232C391.492 106.591 391.536 107.193 391.182 107.588C389.157 109.847 386.71 111.597 383.841 112.838C380.719 114.207 377.19 114.891 373.256 114.891Z" fill="white"/>
<path d="M409.207 113.121C409.207 113.673 408.759 114.121 408.207 114.121H399.814C399.262 114.121 398.814 113.673 398.814 113.121V70.2143C398.814 69.662 399.262 69.2143 399.814 69.2143H408.207C408.759 69.2143 409.207 69.662 409.207 70.2143V85.9204C409.207 86.4727 409.655 86.9204 410.207 86.9204H428.607C429.16 86.9204 429.607 86.4727 429.607 85.9204V70.2143C429.607 69.662 430.055 69.2143 430.607 69.2143H439C439.552 69.2143 440 69.662 440 70.2143V113.121C440 113.673 439.552 114.121 439 114.121H430.607C430.055 114.121 429.607 113.673 429.607 113.121V96.7093C429.607 96.157 429.16 95.7093 428.607 95.7093H410.207C409.655 95.7093 409.207 96.157 409.207 96.7093V113.121Z" fill="white"/>
<path d="M320.053 77.5541C319.501 77.5541 319.053 78.0018 319.053 78.5541V86.3053C319.053 86.8576 319.501 87.3053 320.053 87.3053H338.903C339.455 87.3053 339.903 87.753 339.903 88.3053V94.3885C339.903 94.9408 339.455 95.3885 338.903 95.3885H320.053C319.501 95.3885 319.053 95.8362 319.053 96.3885V104.781C319.053 105.334 319.501 105.781 320.053 105.781H342.496C343.048 105.781 343.496 106.229 343.496 106.781V113.121C343.496 113.673 343.048 114.121 342.496 114.121H309.725C309.173 114.121 308.725 113.673 308.725 113.121V70.2143C308.725 69.662 309.173 69.2143 309.725 69.2143H341.662C342.214 69.2143 342.662 69.662 342.662 70.2143V76.5541C342.662 77.1064 342.214 77.5541 341.662 77.5541H320.053Z" fill="white"/>
<path d="M377.44 50.2954C376.888 50.2954 376.44 49.8477 376.44 49.2954V5.05202C376.44 4.49973 376.888 4.05202 377.44 4.05202H386.142C386.694 4.05202 387.142 4.49973 387.142 5.05202V49.2954C387.142 49.8477 386.694 50.2954 386.142 50.2954H377.44Z" fill="white"/>
<path d="M326.926 4.05202C326.374 4.05202 325.926 4.49973 325.926 5.05202V49.2954C325.926 49.8477 326.374 50.2954 326.926 50.2954H349.84C355.918 50.2954 360.52 49.1944 363.647 46.9923C366.774 44.7462 368.338 41.6413 368.338 37.6776C368.338 34.9911 367.699 32.7229 366.422 30.8732C365.189 29.0234 363.449 27.6361 361.203 26.7113C360.733 26.5087 360.676 25.8157 361.101 25.5313C362.364 24.6871 363.41 23.6491 364.242 22.4173C365.431 20.6116 366.026 18.4976 366.026 16.0753C366.026 12.4639 364.55 9.55719 361.599 7.35512C358.693 5.15305 354.333 4.05202 348.519 4.05202H326.926ZM349.048 42.2358H337.562C337.01 42.2358 336.562 41.7881 336.562 41.2358V31.8071C336.562 31.2548 337.01 30.8071 337.562 30.8071H349.048C351.822 30.8071 353.914 31.2916 355.324 32.2605C356.777 33.1854 357.504 34.6167 357.504 36.5545C357.504 38.5364 356.777 39.9897 355.324 40.9146C353.914 41.7954 351.822 42.2358 349.048 42.2358ZM337.562 23.0118C337.01 23.0118 336.562 22.5641 336.562 22.0118V13.1116C336.562 12.5593 337.01 12.1116 337.562 12.1116H347.198C349.796 12.1116 351.778 12.574 353.143 13.4989C354.553 14.3797 355.257 15.723 355.257 17.5287C355.257 19.3784 354.553 20.7657 353.143 21.6906C351.778 22.5714 349.796 23.0118 347.198 23.0118H337.562Z" fill="white"/>
<path d="M420.446 51.0882C416.79 51.0882 413.421 50.5156 410.338 49.3705C407.299 48.1814 404.635 46.5079 402.345 44.3498C400.099 42.1918 398.337 39.6594 397.06 36.7527C395.827 33.846 395.21 30.653 395.21 27.1737C395.21 23.6944 395.827 20.5015 397.06 17.5947C398.337 14.688 400.121 12.1556 402.411 9.9976C404.701 7.83957 407.387 6.18802 410.47 5.04295C413.553 3.85383 416.944 3.25928 420.644 3.25928C424.74 3.25928 428.417 3.94192 431.676 5.3072C434.668 6.54384 437.226 8.28636 439.351 10.5347C439.722 10.9269 439.685 11.5433 439.289 11.9093L433.854 16.9261C433.452 17.2969 432.829 17.274 432.433 16.8969C430.952 15.4859 429.357 14.4192 427.646 13.6971C425.665 12.8162 423.507 12.3758 421.172 12.3758C418.926 12.3758 416.878 12.7282 415.029 13.4328C413.179 14.1375 411.571 15.1504 410.206 16.4717C408.885 17.7929 407.85 19.3564 407.101 21.1621C406.396 22.9678 406.044 24.9716 406.044 27.1737C406.044 29.3317 406.396 31.3136 407.101 33.1193C407.85 34.925 408.885 36.5105 410.206 37.8758C411.571 39.197 413.157 40.2099 414.963 40.9146C416.812 41.6193 418.838 41.9716 421.04 41.9716C423.154 41.9716 425.202 41.6413 427.184 40.9807C427.736 40.7887 428.283 40.5625 428.825 40.302C429.159 40.1411 429.364 39.798 429.364 39.4266V27.447C429.364 26.8947 429.812 26.447 430.364 26.447H438.141C438.693 26.447 439.141 26.8947 439.141 27.447V44.7104C439.141 45.0242 438.995 45.3208 438.74 45.5046C436.321 47.2545 433.526 48.6092 430.355 49.5687C427.052 50.5817 423.749 51.0882 420.446 51.0882Z" fill="white"/>
<path fill-rule="evenodd" clip-rule="evenodd" d="M192.296 117.333C224.697 117.333 250.963 91.0674 250.963 58.6667C250.963 26.7725 225.512 0.822681 193.811 0.0190972L192.296 0H58.6667L57.1516 0.0190972C25.4511 0.822677 0 26.7725 0 58.6667C0 91.0674 26.266 117.333 58.6667 117.333H192.296ZM192.296 94.5185C212.097 94.5185 228.148 78.4671 228.148 58.6667C228.148 38.8662 212.097 22.8148 192.296 22.8148H58.6667C38.8662 22.8148 22.8148 38.8662 22.8148 58.6667C22.8148 78.4671 38.8662 94.5185 58.6667 94.5185H192.296Z" fill="url(#paint0_linear_6_88)"/>
<path d="M266.967 21.6768C264.558 20.2857 263.732 17.2047 265.124 14.7952L265.961 13.3446C267.352 10.9351 270.433 10.1096 272.843 11.5007L274.293 12.3382C276.703 13.7293 277.528 16.8103 276.137 19.2198L275.3 20.6704C273.909 23.0799 270.828 23.9054 268.418 22.5143L266.967 21.6768Z" fill="url(#paint1_linear_6_88)"/>
<path d="M302.96 42.4572C300.551 41.0661 299.725 37.9851 301.116 35.5756L301.954 34.125C303.345 31.7155 306.426 30.89 308.835 32.2811L310.286 33.1186C312.695 34.5097 313.521 37.5907 312.13 40.0002L311.292 41.4508C309.901 43.8603 306.82 44.6858 304.411 43.2947L302.96 42.4572Z" fill="url(#paint2_linear_6_88)"/>
<path d="M293.747 5.51968C295.138 3.1102 298.219 2.28465 300.628 3.67576L302.083 4.51538C304.492 5.90649 305.318 8.98748 303.927 11.397L282.516 48.4803C281.125 50.8898 278.044 51.7154 275.635 50.3242L274.181 49.4846C271.771 48.0935 270.946 45.0125 272.337 42.603L293.747 5.51968Z" fill="url(#paint3_linear_6_88)"/>
<defs>
<linearGradient id="paint0_linear_6_88" x1="0" y1="58.6667" x2="312.806" y2="58.6667" gradientUnits="userSpaceOnUse">
<stop stop-color="#2267AC"/>
<stop offset="0.33" stop-color="#DC5CD2"/>
<stop offset="0.66" stop-color="#FC9CB0"/>
<stop offset="1" stop-color="#FBD469"/>
</linearGradient>
<linearGradient id="paint1_linear_6_88" x1="0" y1="58.6667" x2="312.806" y2="58.6667" gradientUnits="userSpaceOnUse">
<stop stop-color="#2267AC"/>
<stop offset="0.33" stop-color="#DC5CD2"/>
<stop offset="0.66" stop-color="#FC9CB0"/>
<stop offset="1" stop-color="#FBD469"/>
</linearGradient>
<linearGradient id="paint2_linear_6_88" x1="0" y1="58.6667" x2="312.806" y2="58.6667" gradientUnits="userSpaceOnUse">
<stop stop-color="#2267AC"/>
<stop offset="0.33" stop-color="#DC5CD2"/>
<stop offset="0.66" stop-color="#FC9CB0"/>
<stop offset="1" stop-color="#FBD469"/>
</linearGradient>
<linearGradient id="paint3_linear_6_88" x1="0" y1="58.6667" x2="312.806" y2="58.6667" gradientUnits="userSpaceOnUse">
<stop stop-color="#2267AC"/>
<stop offset="0.33" stop-color="#DC5CD2"/>
<stop offset="0.66" stop-color="#FC9CB0"/>
<stop offset="1" stop-color="#FBD469"/>
</linearGradient>
</defs>
</svg>
